<svg xmlns="http://www.w3.org/2000/svg" viewBox="0 0 200 200" role="img" aria-label="AI 오브젝트"><title>AI 오브젝트</title><defs>
<linearGradient id="g-main" x1="0" y1="0" x2="1" y2="1"><stop offset="0" stop-color="#B9CCFF"/><stop offset=".55" stop-color="#6F82FF"/><stop offset="1" stop-color="#3442E0"/></linearGradient>
<linearGradient id="g-soft" x1="0" y1="0" x2="0" y2="1"><stop offset="0" stop-color="#FFFFFF"/><stop offset="1" stop-color="#D9E5FF"/></linearGradient>
<linearGradient id="g-deep" x1="0" y1="0" x2="1" y2="1"><stop offset="0" stop-color="#5A6BFF"/><stop offset="1" stop-color="#2A35C2"/></linearGradient>
<linearGradient id="g-glass" x1="0" y1="0" x2="0" y2="1"><stop offset="0" stop-color="#FFFFFF" stop-opacity=".95"/><stop offset="1" stop-color="#C9DAFF" stop-opacity=".55"/></linearGradient>
<linearGradient id="g-shine" x1="0" y1="0" x2="1" y2="1"><stop offset="0" stop-color="#FFFFFF" stop-opacity=".9"/><stop offset="1" stop-color="#FFFFFF" stop-opacity="0"/></linearGradient>
<radialGradient id="g-shadow" cx=".5" cy=".5" r=".5"><stop offset="0" stop-color="#3442E0" stop-opacity=".28"/><stop offset="1" stop-color="#3442E0" stop-opacity="0"/></radialGradient>
<filter id="f-blur" x="-20%" y="-20%" width="140%" height="140%"><feGaussianBlur stdDeviation="1.2"/></filter>
</defs><ellipse cx="100" cy="182" rx="62" ry="10" fill="url(#g-shadow)"/>
<path d="M100 22C108 70 120 82 168 92 120 102 108 114 100 162 92 114 80 102 32 92 80 82 92 70 100 22Z" fill="url(#g-main)"/>
<path d="M100 22C104 60 110 72 130 80 108 76 102 66 100 22Z" fill="url(#g-shine)"/>
<path d="M156 30c2 10 5 13 15 15-10 2-13 5-15 15-2-10-5-13-15-15 10-2 13-5 15-15z" fill="#A9BBFF"/>
<path d="M46 132c1.5 7 4 9.5 11 11-7 1.5-9.5 4-11 11-1.5-7-4-9.5-11-11 7-1.5 9.5-4 11-11z" fill="url(#g-soft)"/>
</svg>