<svg xmlns="http://www.w3.org/2000/svg" viewBox="0 0 200 200" role="img" aria-label="광고 확성기 오브젝트"><title>광고 확성기 오브젝트</title><defs>
<linearGradient id="g-main" x1="0" y1="0" x2="1" y2="1"><stop offset="0" stop-color="#B9CCFF"/><stop offset=".55" stop-color="#6F82FF"/><stop offset="1" stop-color="#3442E0"/></linearGradient>
<linearGradient id="g-soft" x1="0" y1="0" x2="0" y2="1"><stop offset="0" stop-color="#FFFFFF"/><stop offset="1" stop-color="#D9E5FF"/></linearGradient>
<linearGradient id="g-deep" x1="0" y1="0" x2="1" y2="1"><stop offset="0" stop-color="#5A6BFF"/><stop offset="1" stop-color="#2A35C2"/></linearGradient>
<linearGradient id="g-glass" x1="0" y1="0" x2="0" y2="1"><stop offset="0" stop-color="#FFFFFF" stop-opacity=".95"/><stop offset="1" stop-color="#C9DAFF" stop-opacity=".55"/></linearGradient>
<linearGradient id="g-shine" x1="0" y1="0" x2="1" y2="1"><stop offset="0" stop-color="#FFFFFF" stop-opacity=".9"/><stop offset="1" stop-color="#FFFFFF" stop-opacity="0"/></linearGradient>
<radialGradient id="g-shadow" cx=".5" cy=".5" r=".5"><stop offset="0" stop-color="#3442E0" stop-opacity=".28"/><stop offset="1" stop-color="#3442E0" stop-opacity="0"/></radialGradient>
<filter id="f-blur" x="-20%" y="-20%" width="140%" height="140%"><feGaussianBlur stdDeviation="1.2"/></filter>
</defs><ellipse cx="100" cy="182" rx="62" ry="10" fill="url(#g-shadow)"/>
<path d="M52 78l78-38v104l-78-38z" fill="url(#g-main)"/>
<rect x="30" y="74" width="30" height="40" rx="10" fill="url(#g-deep)"/>
<ellipse cx="130" cy="92" rx="14" ry="52" fill="url(#g-soft)"/>
<ellipse cx="130" cy="92" rx="8" ry="40" fill="#A9BBFF"/>
<path d="M58 112l14 44a8 8 0 0 0 10 5l6-2a8 8 0 0 0 5-10l-10-30z" fill="url(#g-deep)"/>
<path d="M58 80l66-32v10l-66 30z" fill="url(#g-shine)" opacity=".75"/>
<path d="M156 66q14 26 0 52M168 54q22 38 0 76" fill="none" stroke="#6F82FF" stroke-width="6" stroke-linecap="round"/>
<path transform="translate(48 52) scale(0.9)" d="M0-10C1-3 3-1 10 0 3 1 1 3 0 10-1 3-3 1-10 0-3-1-1-3 0-10Z" fill="#FFFFFF"/></svg>