<svg xmlns="http://www.w3.org/2000/svg" viewBox="0 0 200 200" role="img" aria-label="성과 차트 오브젝트"><title>성과 차트 오브젝트</title><defs>
<linearGradient id="g-main" x1="0" y1="0" x2="1" y2="1"><stop offset="0" stop-color="#B9CCFF"/><stop offset=".55" stop-color="#6F82FF"/><stop offset="1" stop-color="#3442E0"/></linearGradient>
<linearGradient id="g-soft" x1="0" y1="0" x2="0" y2="1"><stop offset="0" stop-color="#FFFFFF"/><stop offset="1" stop-color="#D9E5FF"/></linearGradient>
<linearGradient id="g-deep" x1="0" y1="0" x2="1" y2="1"><stop offset="0" stop-color="#5A6BFF"/><stop offset="1" stop-color="#2A35C2"/></linearGradient>
<linearGradient id="g-glass" x1="0" y1="0" x2="0" y2="1"><stop offset="0" stop-color="#FFFFFF" stop-opacity=".95"/><stop offset="1" stop-color="#C9DAFF" stop-opacity=".55"/></linearGradient>
<linearGradient id="g-shine" x1="0" y1="0" x2="1" y2="1"><stop offset="0" stop-color="#FFFFFF" stop-opacity=".9"/><stop offset="1" stop-color="#FFFFFF" stop-opacity="0"/></linearGradient>
<radialGradient id="g-shadow" cx=".5" cy=".5" r=".5"><stop offset="0" stop-color="#3442E0" stop-opacity=".28"/><stop offset="1" stop-color="#3442E0" stop-opacity="0"/></radialGradient>
<filter id="f-blur" x="-20%" y="-20%" width="140%" height="140%"><feGaussianBlur stdDeviation="1.2"/></filter>
</defs><ellipse cx="100" cy="182" rx="62" ry="10" fill="url(#g-shadow)"/>
<rect x="26" y="34" width="148" height="128" rx="26" fill="url(#g-soft)"/>
<rect x="48" y="112" width="22" height="30" rx="7" fill="#C9D6FF"/><rect x="80" y="94" width="22" height="48" rx="7" fill="#9FB2FF"/><rect x="112" y="72" width="22" height="70" rx="7" fill="#6F82FF"/><rect x="144" y="50" width="0" height="0"/>
<path d="M50 96l32-18 30 6 40-34" fill="none" stroke="#3442E0" stroke-width="6" stroke-linecap="round" stroke-linejoin="round"/>
<circle cx="152" cy="50" r="9" fill="#3442E0"/><circle cx="152" cy="50" r="4" fill="#FFFFFF"/>
<path transform="translate(160 128) scale(0.7)" d="M0-10C1-3 3-1 10 0 3 1 1 3 0 10-1 3-3 1-10 0-3-1-1-3 0-10Z" fill="#FFFFFF"/></svg>